<?xml version="1.0" encoding="UTF-8" standalone="no"?>
<svg
   id="Ebene_1"
   data-name="Ebene 1"
   viewBox="0 0 500 500"
   version="1.1"
   xmlns="http://www.w3.org/2000/svg"
   xmlns:svg="http://www.w3.org/2000/svg">
  <rect
     fill="#e5d8af"
     id="rect10"
     width="500"
     height="500"
     x="0"
     y="0" />
  <path
     id="path1"
     class="cls-2"
     d="M 261.80078 86.980469 L 261.80078 95.099609 C 261.80078 97.129605 262.04039 99.099298 262.40039 101.0293 L 249.16016 101.0293 C 232.32018 101.0293 218.61914 114.73057 218.61914 131.56055 L 218.61914 241.73047 L 234.86914 241.73047 L 234.86914 131.56055 C 234.86914 123.69055 241.28016 117.2793 249.16016 117.2793 L 270.66016 117.2793 C 276.60014 123.61928 284.9801 127.64063 294.33008 127.64062 L 324.58008 127.64062 C 333.93006 127.64062 342.31002 123.61928 348.25 117.2793 L 369.64062 117.2793 C 373.47062 117.2793 377.05977 118.78025 379.75977 121.49023 C 382.45975 124.21023 383.93992 127.81064 383.91992 131.64062 L 383.25 262.76953 C 383.21 270.57951 376.83092 276.95023 368.96094 276.99023 L 314.01953 277.61914 L 314.19922 293.86914 L 369.08008 293.24023 C 385.77004 293.17023 399.41023 279.53934 399.49023 262.85938 L 400.16016 131.73047 C 400.20016 123.54049 397.03953 115.83928 391.26953 110.0293 L 391.28906 110.01953 C 385.51908 104.21955 377.83037 101.0293 369.65039 101.0293 L 356.51953 101.0293 C 356.87953 99.099298 357.11914 97.129605 357.11914 95.099609 L 357.11914 86.980469 L 261.80078 86.980469 z M 280.38086 103.2207 L 338.67969 103.2207 C 335.86969 108.0907 330.60031 111.38086 324.57031 111.38086 L 324.58008 111.39062 L 294.33008 111.39062 C 288.40008 111.39062 283.24086 108.18945 280.38086 103.43945 L 280.38086 103.2207 z M 259.65039 152.51953 C 253.44041 152.51953 248.41016 157.55977 248.41016 163.75977 L 248.41016 175.2207 C 248.41016 181.4307 253.45041 186.46094 259.65039 186.46094 L 271.10938 186.46094 C 277.31936 186.46094 282.34961 181.4207 282.34961 175.2207 L 282.34961 163.75977 C 282.34961 157.54977 277.30936 152.51953 271.10938 152.51953 L 259.65039 152.51953 z M 301.33008 161.35938 L 301.33008 177.60938 L 369.56055 177.60938 L 369.56055 161.35938 L 301.33008 161.35938 z M 259.65039 209.15039 C 253.44041 209.15039 248.41016 214.19064 248.41016 220.39062 L 248.41016 231.84961 C 248.41016 238.05959 253.45041 243.08984 259.65039 243.08984 L 271.10938 243.08984 C 277.31936 243.08984 282.34961 238.04959 282.34961 231.84961 L 282.34961 220.39062 C 282.34961 214.18064 277.30936 209.15039 271.10938 209.15039 L 259.65039 209.15039 z M 301.33008 217.99023 L 301.33008 234.24023 L 369.56055 234.24023 L 369.56055 217.99023 L 301.33008 217.99023 z M 229.28906 262.59961 C 189.53914 262.59961 157.19922 294.93977 157.19922 334.67969 C 157.19922 374.41961 189.53914 406.76953 229.28906 406.76953 C 266.289 406.76953 296.83064 378.74047 300.89062 342.81055 L 326.0293 342.81055 L 326.0293 358.99023 L 368.11914 334.67969 L 326.0293 310.36914 L 326.0293 326.56055 L 300.89062 326.56055 C 296.84064 290.63061 266.289 262.59961 229.28906 262.59961 z M 224.58008 279.31055 L 224.58008 286.69922 C 224.58008 289.28922 226.67953 291.39063 229.26953 291.39062 C 231.85953 291.39062 233.96094 289.28922 233.96094 286.69922 L 233.96094 279.31055 C 245.80092 280.32055 256.51938 284.95094 265.10938 292.21094 L 259.89062 297.42969 C 258.06064 299.25969 258.06064 302.23055 259.89062 304.06055 C 260.81062 304.98055 261.99922 305.42969 263.19922 305.42969 C 264.39922 305.42969 265.59977 304.97055 266.50977 304.06055 L 271.73047 298.83984 C 278.99045 307.42984 283.63086 318.14049 284.63086 329.98047 L 277.24023 329.98047 C 274.65025 329.98047 272.55078 332.07992 272.55078 334.66992 C 272.55078 337.25992 274.65025 339.35937 277.24023 339.35938 L 284.63086 339.35938 C 283.62128 351.19441 278.99305 361.90987 271.73828 370.49805 L 266.5293 365.28906 C 264.6993 363.45906 261.73039 363.45906 259.90039 365.28906 C 258.07039 367.11906 258.07039 370.08992 259.90039 371.91992 L 265.11914 377.14062 C 256.52916 384.40062 245.82068 389.03906 233.9707 390.03906 L 233.9707 382.65039 C 233.9707 380.06039 231.86928 377.96094 229.2793 377.96094 C 226.6893 377.96094 224.58984 380.06039 224.58984 382.65039 L 224.58984 390.03906 C 212.74988 389.02906 202.02943 384.40062 193.43945 377.14062 L 198.66016 371.91992 C 200.49014 370.08992 200.49014 367.11906 198.66016 365.28906 C 196.83016 363.45906 193.8593 363.45906 192.0293 365.28906 L 186.81055 370.50977 C 179.55055 361.91977 174.91039 351.19934 173.90039 339.35938 L 181.28906 339.35938 C 183.87906 339.35938 185.98047 337.25992 185.98047 334.66992 C 185.98047 332.07992 183.87906 329.98047 181.28906 329.98047 L 173.90039 329.98047 C 174.91039 318.14049 179.5408 307.42006 186.80078 298.83008 L 192.0293 304.06055 C 192.9493 304.98055 194.13984 305.42969 195.33984 305.42969 C 196.53984 305.42969 197.74039 304.97055 198.65039 304.06055 C 200.48039 302.23055 200.48039 299.25969 198.65039 297.42969 L 193.42969 292.21094 C 202.01967 284.95094 212.7301 280.32055 224.58008 279.31055 z M 101.57031 289.92969 C 97.080324 289.92969 93.449219 293.5708 93.449219 298.05078 C 93.449219 302.53078 97.090324 306.16992 101.57031 306.16992 L 144.38086 306.16992 C 148.87084 306.16992 152.5 302.53078 152.5 298.05078 C 152.5 293.5708 148.86084 289.92969 144.38086 289.92969 L 101.57031 289.92969 z M 229.2793 308.19922 C 226.6893 308.19922 224.58984 310.30064 224.58984 312.89062 L 224.58984 327.39062 L 192.99023 312.93945 C 190.65025 311.85945 187.8593 312.9 186.7793 315.25 C 185.6993 317.6 186.73986 320.38094 189.08984 321.46094 L 227.32031 338.94922 C 227.94031 339.23922 228.59953 339.38086 229.26953 339.38086 C 230.15953 339.38086 231.03078 339.13062 231.80078 338.64062 C 233.14078 337.78064 233.94922 336.28922 233.94922 334.69922 L 233.94922 312.90039 C 233.94922 310.31039 231.84975 308.21094 229.25977 308.21094 L 229.2793 308.19922 z M 85.460938 326.56055 C 80.970946 326.56055 77.339844 330.19969 77.339844 334.67969 C 77.339844 339.15967 80.980946 342.80078 85.460938 342.80078 L 128.26953 342.80078 C 132.75953 342.80078 136.39062 339.15967 136.39062 334.67969 C 136.39062 330.18969 132.74953 326.56055 128.26953 326.56055 L 85.460938 326.56055 z M 101.57031 363.17969 C 97.080324 363.17969 93.449219 366.8208 93.449219 371.30078 C 93.449219 375.78078 97.090324 379.41992 101.57031 379.41992 L 144.38086 379.41992 C 148.87084 379.41992 152.5 375.78078 152.5 371.30078 C 152.5 366.8208 148.86084 363.17969 144.38086 363.17969 L 101.57031 363.17969 z "
     fill="#0e692e" />
</svg>
