<?xml version="1.0" encoding="UTF-8"?>
<svg id="Ebene_1" data-name="Ebene 1" xmlns="http://www.w3.org/2000/svg" viewBox="0 0 500 500">
  <defs>
    <style>
      .cls-1 {
        fill: #2fab16;
      }

      .cls-1, .cls-2 {
        stroke-width: 0px;
      }

      .cls-2 {
        fill: #fff;
      }
    </style>
  </defs>
  <circle id="Circle_green" data-name="Circle green" class="cls-1" cx="250" cy="250" r="250"/>
  <g>
    <path class="cls-2" d="M234.37,371.98l-23.25-14.27c.68-2.01,1.22-4.07,1.57-6.15,2.3-14.05-5.73-25.51-13.49-36.58-3.03-4.33-6.12-8.73-8.78-13.43l21.84-3.66c4.43-.74,7.41-4.93,6.67-9.36-.74-4.43-4.98-7.37-9.36-6.67l-25.47,4.27c-3.31-13.7-2.77-23.29-2.29-31.76.51-8.92.96-17.4-3.98-26.26l17.17-22.18c2.75-3.55,2.09-8.65-1.45-11.4-3.56-2.73-8.65-2.1-11.4,1.45l-15.69,20.27c-5.25-3.39-11.35-5.4-17.86-5.6l-4.43-26.46c-.74-4.43-4.99-7.41-9.36-6.67-4.43.74-7.41,4.93-6.67,9.36l4.49,26.79c-6.58,2.73-12.41,7.19-17.02,13.27l-23.76-15.87c-3.72-2.49-8.76-1.5-11.27,2.25-2.49,3.73-1.49,8.78,2.25,11.27l24.81,16.57c-6.75,16.81-7.83,37.53-3.87,58.45l-24.03,4.03c-4.43.74-7.41,4.93-6.67,9.36.67,3.97,4.11,6.78,8,6.78.45,0,.9-.04,1.35-.11l25.28-4.23c6.05,19.44,16.34,38.16,30.38,53,.5.53,1.96,2,4.12,3.87l-11.17,24.95c-1.83,4.1,0,8.9,4.1,10.74,1.08.48,2.2.71,3.31.71,3.11,0,6.07-1.79,7.42-4.81l10.07-22.49c4.76,2.33,10.24,4.03,16.12,4.46l4.07,24.29c.67,3.97,4.11,6.78,8,6.78.45,0,.9-.04,1.35-.11,4.43-.74,7.41-4.93,6.67-9.36l-4.05-24.15c5.69-2.44,10.86-6.45,15.02-11.43l22.76,13.97c1.32.81,2.79,1.2,4.24,1.2,2.73,0,5.4-1.37,6.93-3.88,2.34-3.82,1.15-8.83-2.68-11.18ZM179.32,369.24c-11.42,3.05-24.26-6.51-29.44-11.99-30.81-32.57-41.73-90.54-22.47-119.27,4.72-7.04,11.82-11.15,19.48-11.27.12,0,.24,0,.37,0,6.27,0,11.78,2.68,15.17,7.39,3.78,5.26,3.7,9.73,3.16,19.35-.52,9.13-1.16,20.49,2.73,36.55,3.42,14.11,10.94,24.84,17.58,34.31,7.43,10.6,11.93,17.47,10.75,24.63-1.51,9.22-9.12,18.13-17.33,20.31Z"/>
    <path class="cls-2" d="M145.63,271.04c5.64-.94,9.45-6.28,8.5-11.92-.95-5.64-6.28-9.45-11.92-8.5-5.64.94-9.45,6.28-8.5,11.92.94,5.64,6.28,9.45,11.92,8.5Z"/>
    <path class="cls-2" d="M144.95,289.85c-5.64.95-9.45,6.28-8.5,11.92.94,5.64,6.28,9.45,11.92,8.5,5.64-.95,9.45-6.28,8.5-11.92-.95-5.64-6.28-9.45-11.92-8.5Z"/>
    <path class="cls-2" d="M165.71,328.26c-5.64.95-9.45,6.28-8.5,11.92.95,5.64,6.28,9.45,11.92,8.5,5.64-.95,9.45-6.28,8.5-11.92-.94-5.64-6.28-9.45-11.92-8.5Z"/>
  </g>
  <g>
    <path class="cls-2" d="M316.07,352.59c-3.49,3.49-3.49,9.15,0,12.64,3.49,3.49,9.15,3.49,12.64,0,3.49-3.49,3.49-9.15,0-12.64-3.49-3.49-9.15-3.49-12.64,0Z"/>
    <path class="cls-2" d="M384.8,350.79h-23.33c-1-4.84-2.86-9.54-5.66-13.81l8.04-8.04c3.17-3.17,3.17-8.31,0-11.49s-8.31-3.17-11.49,0l-8.04,8.04c-4.27-2.8-8.96-4.67-13.81-5.67v-10.51c0-4.49-3.64-8.12-8.12-8.12s-8.12,3.64-8.12,8.12v10.51c-4.84,1-9.54,2.86-13.81,5.67l-13.01-13.01c-3.17-3.17-8.31-3.17-11.49,0s-3.17,8.31,0,11.49l13.01,13.01c-2.8,4.27-4.67,8.97-5.67,13.81h-13.45c-4.49,0-8.12,3.64-8.12,8.12s3.64,8.12,8.12,8.12h13.45c1,4.84,2.86,9.54,5.66,13.81l-16.82,16.82c-3.17,3.17-3.17,8.31,0,11.49,1.59,1.59,3.66,2.38,5.74,2.38s4.16-.79,5.74-2.38l16.83-16.83c4.2,2.77,8.87,4.71,13.8,5.72v5.36c0,4.49,3.64,8.12,8.12,8.12s8.12-3.64,8.12-8.12v-5.36c4.93-1.01,9.6-2.95,13.8-5.72l13.01,13.01c1.59,1.59,3.66,2.38,5.74,2.38s4.16-.79,5.74-2.38c3.17-3.17,3.17-8.31,0-11.49l-13.01-13.01c2.8-4.27,4.67-8.97,5.66-13.81h23.33c4.49,0,8.12-3.64,8.12-8.12s-3.64-8.12-8.12-8.12ZM305.61,375.69c-9.25-9.25-9.25-24.3,0-33.56,4.63-4.63,10.71-6.93,16.78-6.93s12.15,2.31,16.78,6.93c9.25,9.25,9.25,24.3,0,33.56-8.96,8.97-24.58,8.97-33.55,0Z"/>
  </g>
  <path class="cls-2" d="M393.02,138.43c-6.15,0-11.31,3.53-14.13,8.55l-14.7.25c-1.4-9.48-5.08-18.14-10.58-25.48l7.34-7.34c.45-.45.7-1.01,1.02-1.54,1.87.62,3.82,1.04,5.9,1.04,10.42,0,18.91-8.48,18.91-18.91s-8.48-18.91-18.91-18.91-18.91,8.48-18.91,18.91c0,2.58.53,5.04,1.47,7.28-.31.23-.68.35-.96.64l-7.34,7.34c-7.38-5.52-16.09-9.2-25.61-10.59v-13.09c4.88-2.85,8.32-7.93,8.32-13.98,0-9.06-7.37-16.44-16.44-16.44s-16.44,7.37-16.44,16.44c0,6.04,3.43,11.12,8.31,13.97v13.1c-9.52,1.39-18.23,5.07-25.61,10.59l-7.49-7.47c2.02-3.37,3.26-7.26,3.26-11.46,0-12.35-10.05-22.39-22.39-22.39s-22.39,10.04-22.39,22.39,10.04,22.39,22.39,22.39c2.13,0,4.16-.4,6.12-.96l9.02,8.99c-5.52,7.37-9.2,16.08-10.58,25.6h-12.6c-3.05-6.35-9.49-10.78-17-10.78-10.42,0-18.91,8.48-18.91,18.91s8.48,18.91,18.91,18.91c7.51,0,13.95-4.43,17-10.79h12.59c1.39,9.53,5.07,18.24,10.59,25.62l-7.28,7.28c-.51.51-.79,1.12-1.14,1.71-1.49-.44-2.97-.93-4.59-.93-9.06,0-16.44,7.37-16.44,16.44s7.37,16.44,16.44,16.44,16.44-7.37,16.44-16.44c0-1.63-.49-3.11-.93-4.59.59-.34,1.21-.63,1.71-1.14l7.28-7.28c7.38,5.52,16.09,9.21,25.62,10.59v12.21c-6.35,3.05-10.78,9.49-10.78,17,0,10.42,8.48,18.9,18.91,18.9s18.91-8.48,18.91-18.9c0-7.51-4.43-13.95-10.78-17v-12.21c9.53-1.39,18.23-5.07,25.61-10.59l12.26,12.26c-.18.97-.58,1.86-.58,2.88,0,9.06,7.37,16.44,16.44,16.44s16.44-7.37,16.44-16.44-7.37-16.44-16.44-16.44c-1.9,0-3.66.49-5.36,1.08l-11.27-11.27c5.55-7.41,9.23-16.17,10.6-25.74l14.99-.26c2.89,4.74,7.87,8.08,13.82,8.08,9.06,0,16.44-7.37,16.44-16.44s-7.37-16.44-16.44-16.44ZM308.39,195.88c-22.27,0-40.39-18.12-40.39-40.39s18.12-40.39,40.39-40.39,40.39,18.12,40.39,40.39-18.12,40.39-40.39,40.39Z"/>
  <circle class="cls-2" cx="296.34" cy="143.23" r="12.05"/>
  <circle class="cls-2" cx="316.7" cy="168.41" r="7.77"/>
</svg>