<?xml version="1.0" encoding="UTF-8"?>
<svg id="Ebene_1" data-name="Ebene 1" xmlns="http://www.w3.org/2000/svg" viewBox="0 0 500 500">
  <defs>
    <style>
      .cls-1 {
        fill: #2fab16;
      }

      .cls-1, .cls-2 {
        stroke-width: 0px;
      }

      .cls-2 {
        fill: #fff;
      }
    </style>
  </defs>
  <circle id="Circle_bled_red" data-name="Circle bled red" class="cls-1" cx="250" cy="250" r="250"/>
  <g>
    <rect class="cls-2" x="112.21" y="298.13" width="38.38" height="17.39" transform="translate(-141.63 114.83) rotate(-31.7)"/>
    <rect class="cls-2" x="121.55" y="178.1" width="17.39" height="38.28" transform="translate(-105.51 214.12) rotate(-60.66)"/>
    <g>
      <rect class="cls-2" x="204.25" y="349.19" width="38.34" height="17.39" transform="translate(-135.06 580.37) rotate(-89.85)"/>
      <rect class="cls-2" x="204.76" y="133.41" width="38.34" height="17.39" transform="translate(81.23 365.67) rotate(-89.85)"/>
    </g>
    <path class="cls-2" d="M246.8,282.19c-6.63,4.99-14.49,8.02-23.09,8.14-13.3.56-25.59-6.09-33.45-17.26-9.04-12.85-9.31-30.98-.66-44.09,7.52-11.4,19.52-18.05,32.92-18.25.2,0,.41,0,.61,0,8.77,0,16.86,3.01,23.66,8.12v-20.31c-7.68-3.56-16.04-5.47-24.53-5.18-18.96.28-36.59,10.03-47.17,26.06-12.69,19.23-12.31,44.82.95,63.67,10.89,15.48,28.44,24.65,47.08,24.65.28,0,.57,0,.85,0,8-.12,15.73-2.02,22.83-5.27v-20.27Z"/>
    <g>
      <path class="cls-2" d="M289.8,169.91c0,8.05-4.55,15.06-9.81,23.18-5.93,9.15-12.65,19.52-12.65,32.8s5.97,23.32,11.23,32.38c4.74,8.16,8.84,15.22,8.84,23.5s-4.54,15.37-9.8,23.62c-5.72,8.98-12.21,19.15-12.66,32.06l-.29,8.16h17.7l.26-7.55c.28-8.09,4.96-15.41,9.9-23.16,5.89-9.25,12.58-19.72,12.58-33.12s-5.97-23.32-11.23-32.38c-4.74-8.16-8.84-15.22-8.84-23.5s4.55-15.06,9.81-23.18c5.93-9.15,12.65-19.52,12.65-32.8v-7.66h-17.68v7.66Z"/>
      <path class="cls-2" d="M331.41,170.51c0,8.05-4.55,15.07-9.81,23.18-5.93,9.15-12.66,19.52-12.66,32.8s5.97,23.32,11.23,32.39c4.74,8.16,8.84,15.22,8.84,23.5s-4.54,15.37-9.81,23.62c-5.72,8.98-12.21,19.15-12.65,32.06l-.27,7.57h17.7l.24-6.96c.29-8.09,4.96-15.41,9.9-23.16,5.89-9.25,12.57-19.72,12.57-33.12s-5.97-23.32-11.23-32.38c-4.74-8.16-8.84-15.22-8.84-23.5s4.54-15.06,9.81-23.18c5.93-9.15,12.66-19.52,12.66-32.8v-8.25h-17.68v8.25Z"/>
      <path class="cls-2" d="M373.01,171.1c0,8.05-4.55,15.07-9.81,23.18-5.93,9.15-12.65,19.52-12.65,32.8s5.97,23.32,11.23,32.39c4.74,8.16,8.84,15.22,8.84,23.5s-4.54,15.36-9.81,23.61c-5.72,8.97-12.21,19.15-12.66,32.07l-.25,6.98h17.7l.22-6.37c.28-8.09,4.96-15.41,9.9-23.16,5.89-9.25,12.58-19.73,12.58-33.12s-5.97-23.32-11.23-32.38c-4.74-8.16-8.84-15.22-8.84-23.5s4.54-15.06,9.81-23.18c5.93-9.15,12.65-19.52,12.65-32.8v-8.84h-17.68v8.84Z"/>
    </g>
  </g>
</svg>