<?xml version="1.0" encoding="UTF-8"?>
<svg id="Ebene_1" data-name="Ebene 1" xmlns="http://www.w3.org/2000/svg" viewBox="0 0 500 500">
  <defs>
    <style>
      .cls-1 {
        fill: #2fab16;
      }

      .cls-1, .cls-2 {
        stroke-width: 0px;
      }

      .cls-2 {
        fill: #fff;
      }
    </style>
  </defs>
  <circle id="Circle_green" data-name="Circle green" class="cls-1" cx="250" cy="250" r="250"/>
  <path class="cls-2" d="M221,418.34c-6.66,0-9.65-3-10.99-5.58-.88-1.68-2.47-6.18,1.61-11.48,6.17-8.01,8.96-14.64,7.86-18.69-.87-3.22-4.67-6.21-11.29-8.89-86.87-35.19-125.87-127.81-126.39-152.42-.15-7.16,3.11-10.16,5.88-11.42,1.76-.79,6.39-2.15,11.46,2.46,7.77,7.08,14.73,10.17,19.62,8.71,3.45-1.04,6.28-4.69,7.56-9.75l.15-.51c28.94-89.9,123.78-126.56,148.03-128.93,2.78-.28,11.34-1.11,14.94,5.38.95,1.72,2.72,6.3-1.43,11.68-6.17,8.01-8.96,14.64-7.86,18.69.87,3.22,4.67,6.21,11.29,8.89,84.38,34.19,125.39,122.89,126.73,150.83.3,6.24-1.59,10.46-5.62,12.57-1.7.89-6.24,2.51-11.55-1.59-8.01-6.17-14.61-8.95-18.67-7.9-2.91.78-5.57,4.02-7.9,9.63-36.05,86.73-128.12,127.28-152.44,128.31-.34.01-.67.02-.99.02ZM100.8,233.41c9.35,29.24,43.15,96.72,113.49,125.21,11.74,4.76,18.57,11.21,20.87,19.71,1.78,6.56.64,13.74-3.47,21.74,28.83-8.83,98.65-46.34,127.73-116.31,4.38-10.52,10.68-16.94,18.73-19.09,6.65-1.75,13.95-.54,22.11,3.77-8.07-28.48-44.51-98.38-114.94-126.9-11.74-4.76-18.57-11.21-20.87-19.71-1.85-6.81-.55-14.29,3.96-22.67-29.11,7.2-102.95,43.86-126.42,116.36-2.73,10.52-9.65,18.38-18.55,21.06-5.32,1.6-13.02,1.9-22.64-3.16Z"/>
  <path class="cls-2" d="M250,287.86c-20.88,0-37.87-16.99-37.87-37.87s16.99-37.86,37.87-37.86,37.86,16.99,37.86,37.86-16.99,37.87-37.86,37.87ZM250,228.39c-11.92,0-21.62,9.7-21.62,21.61s9.7,21.62,21.62,21.62,21.61-9.7,21.61-21.62-9.7-21.61-21.61-21.61Z"/>
  <path class="cls-2" d="M213.76,321.48c-1.37,0-2.76-.34-4.03-1.07-25.01-14.34-40.65-41.14-40.81-69.93-.02-4.49,3.59-8.15,8.07-8.17h.05c4.47,0,8.1,3.61,8.12,8.07.13,23.03,12.64,44.46,32.65,55.93,3.89,2.23,5.24,7.2,3.01,11.09-1.5,2.62-4.24,4.08-7.06,4.08ZM286.63,321.26c-2.8,0-5.52-1.45-7.03-4.04-2.25-3.88-.94-8.85,2.94-11.11,19.93-11.59,32.31-33.09,32.31-56.12,0-4.46,3.58-8.5,8.04-8.55h.1c4.41,0,8.02,3.11,8.11,7.53v1.2c0,28.61-15.48,55.5-40.39,69.99-1.28.74-2.69,1.1-4.08,1.1ZM213.02,195.21c-2.78,0-5.49-1.43-7.01-4-2.28-3.87-.99-8.85,2.87-11.13,24.42-14.37,56.35-14.65,80.98-.73,3.91,2.21,5.29,7.17,3.08,11.07s-7.18,5.28-11.07,3.08c-19.69-11.12-45.23-10.91-64.73.58-1.29.76-2.72,1.12-4.12,1.12Z"/>
  <g>
    <g>
      <path class="cls-2" d="M417.9,173.56c-2.85,0-5.62-1.5-7.1-4.16-18.34-32.87-46.48-57.79-81.38-72.09-4.15-1.7-6.14-6.45-4.44-10.6,1.7-4.16,6.45-6.13,10.6-4.44,38.34,15.71,69.25,43.1,89.4,79.21,2.19,3.92.79,8.87-3.13,11.05-1.26.7-2.61,1.03-3.96,1.03Z"/>
      <path class="cls-2" d="M167.5,424.01c-1.03,0-2.07-.2-3.08-.61-38.34-15.7-69.26-43.1-89.4-79.21-2.19-3.92-.78-8.87,3.14-11.06s8.86-.79,11.06,3.14c18.33,32.87,46.47,57.79,81.37,72.09,4.15,1.7,6.14,6.45,4.44,10.6-1.29,3.14-4.32,5.05-7.52,5.05Z"/>
    </g>
    <g>
      <path class="cls-2" d="M337.4,428.85c-2.85,0-5.62-1.5-7.1-4.16-2.19-3.92-.78-8.87,3.14-11.06,32.86-18.33,57.79-46.47,72.09-81.37,1.7-4.16,6.46-6.11,10.6-4.44,4.15,1.7,6.14,6.45,4.44,10.6-15.72,38.34-43.11,69.26-79.21,89.4-1.26.7-2.61,1.03-3.96,1.03Z"/>
      <path class="cls-2" d="M86.95,178.46c-1.03,0-2.08-.2-3.08-.61-4.15-1.7-6.14-6.45-4.44-10.6,15.72-38.35,43.1-69.26,79.21-89.4,3.89-2.19,8.86-.79,11.05,3.14,2.19,3.92.78,8.87-3.14,11.06-32.86,18.32-57.79,46.46-72.09,81.37-1.29,3.14-4.32,5.05-7.52,5.05Z"/>
    </g>
  </g>
</svg>