<?xml version="1.0" encoding="UTF-8"?>
<svg id="Ebene_1" data-name="Ebene 1" xmlns="http://www.w3.org/2000/svg" viewBox="0 0 500 500">
  <defs>
    <style>
      .cls-1 {
        fill: #2fab16;
      }

      .cls-1, .cls-2, .cls-3 {
        stroke-width: 0px;
      }

      .cls-2 {
        fill: none;
      }

      .cls-3 {
        fill: #fff;
      }
    </style>
  </defs>
  <circle id="Circle_green" data-name="Circle green" class="cls-1" cx="250" cy="250" r="250"/>
  <g>
    <polygon class="cls-2" points="215.48 241.01 176.23 241.63 176.23 276.02 216.1 275.39 215.48 241.01"/>
    <path class="cls-2" d="M267.81,83.74c-4.78-5.27-10.35-8.33-15.79-8.73-.67-.05-1.34-.08-2.01-.08s-1.35.03-2.03.08c-5.43.4-11,3.47-15.7,8.63l-87.5,93.3h210.44s-87.41-93.21-87.41-93.21Z"/>
    <path class="cls-2" d="M324.79,323.42l.48-82.41-46.58.62v80.36c7.19,2.51,15.63,4.29,25.62,4.29,7.95,0,14.59-1.2,20.47-2.86Z"/>
    <path class="cls-2" d="M145,302.95s15.9,22.84,53.48,23.33c33.13.43,51.52-23.33,51.52-23.33,0,0,4.16,5.4,12.45,11v-72.94c0-8.61,7.01-15.62,15.62-15.62h47.82c8.62,0,15.62,7.01,15.62,15.62v74.93c9.41-6.25,13.48-12.99,13.48-12.99,0,0,6.31,5.85,14.24,11.56v-120.89c0-.16-.15-.27-.17-.43h-238.14c-.02.16-.16.27-.16.42v120.9c9.93-5.92,14.23-11.55,14.23-11.55ZM159.98,241.01c0-8.61,7.01-15.62,15.62-15.62h40.49c8.62,0,15.62,7.01,15.62,15.62v35c0,8.62-7.01,15.62-15.62,15.62h-40.49c-8.62,0-15.62-7.01-15.62-15.62v-35Z"/>
    <path class="cls-3" d="M175.61,291.64h40.49c8.62,0,15.62-7.01,15.62-15.62v-35c0-8.61-7.01-15.62-15.62-15.62h-40.49c-8.62,0-15.62,7.01-15.62,15.62v35c0,8.62,7.01,15.62,15.62,15.62ZM176.23,241.63l39.25-.62.62,34.38-39.87.62v-34.38Z"/>
    <path class="cls-3" d="M325.27,241.01l-.48,82.41c6.85-1.94,12.39-4.6,16.73-7.48v-74.93c0-8.61-7.01-15.62-15.62-15.62h-47.82c-8.62,0-15.62,7.01-15.62,15.62v72.94c4.27,2.89,9.69,5.75,16.25,8.04v-80.36l46.58-.62Z"/>
    <path class="cls-3" d="M130.77,193.61c0-.15.15-.26.16-.42h238.14c.02.15.17.27.17.43v120.89c4.5,3.25,9.52,6.46,14.23,8.52.37.16.8.29,1.19.44.51-2.66.83-5.39.83-8.19v-121.66c0-5.27-1.98-10.28-5.58-14.12l-100.15-106.79c-7.51-8.26-16.93-13.21-26.54-13.92-2.13-.15-4.28-.15-6.43,0-9.6.71-19.02,5.65-26.45,13.82l-100.25,106.9c-3.59,3.83-5.57,8.84-5.57,14.09v121.67c0,2.19.33,4.28.65,6.39,6.23-2.19,11.45-4.68,15.6-7.16v-120.9ZM232.27,83.64c4.7-5.16,10.27-8.23,15.7-8.63.68-.05,1.35-.08,2.03-.08s1.34.02,2.01.08c5.44.4,11.01,3.46,15.79,8.73l87.41,93.2h-210.44s87.5-93.3,87.5-93.3Z"/>
  </g>
  <path class="cls-3" d="M302.5,412.94c-19.43,0-38.13-7.21-52.5-20.02-14.37,12.81-33.07,20.02-52.5,20.02s-38.08-7.19-52.44-19.96c-14.26,13.07-30.58,18.36-49.8,16.18l-8.07-.92,1.84-16.14,8.07.92c16.75,1.96,29.65-3.31,41.84-16.94l6.02-6.74,6.06,6.71c11.85,13.12,28.78,20.65,46.47,20.65s34.62-7.53,46.47-20.65l6.03-6.68,6.03,6.68c11.85,13.12,28.78,20.65,46.47,20.65s34.62-7.53,46.47-20.65l6.5-7.2,5.95,7.67c11.96,15.41,26.75,20.7,46.59,16.6l7.95-1.64,3.28,15.91-7.96,1.64c-22.69,4.66-41.75-.61-56.73-15.72-14.31,12.57-32.84,19.64-52.06,19.64Z"/>
  <path class="cls-3" d="M414.33,334.3c-21.5,0-42.25-7.35-59-20.98-14.41,12.99-33.26,20.32-52.83,20.32s-38.13-7.21-52.5-20.02c-14.37,12.81-33.07,20.02-52.5,20.02s-38.43-7.32-52.84-20.32c-19.76,16.08-45.07,23.44-70.66,20.26l-8.07-.99,2-16.13,8.06,1c23.38,2.87,46.44-4.82,63.37-21.12l6.05-5.82,5.62,6.23c11.85,13.12,28.78,20.65,46.47,20.65s34.62-7.53,46.47-20.65l6.03-6.68,6.03,6.68c11.85,13.12,28.78,20.65,46.47,20.65s34.62-7.53,46.47-20.65l5.63-6.23,6.04,5.82c16.93,16.31,40.03,24.01,63.36,21.12l8.06-1,2,16.13-8.07.99c-3.89.48-7.79.72-11.66.72Z"/>
</svg>