<?xml version="1.0" encoding="UTF-8"?>
<svg id="Ebene_1" data-name="Ebene 1" xmlns="http://www.w3.org/2000/svg" viewBox="0 0 500 500">
  <defs>
    <style>
      .cls-1 {
        fill: #2fab16;
      }

      .cls-1, .cls-2 {
        stroke-width: 0px;
      }

      .cls-2 {
        fill: #fff;
      }
    </style>
  </defs>
  <circle class="cls-2" cx="250" cy="250" r="250"/>
  <g>
    <path class="cls-1" d="M96.4,415.38l-18.69,15.47c15.35,14.63,32.47,27.39,51.14,37.77l4.5-26.84-36.95-26.4Z"/>
    <path class="cls-1" d="M149.25,445.28l-5.18,30.92c17.68,8.3,36.36,14.81,56.01,18.79l11.6-59.1-62.43,9.39Z"/>
    <path class="cls-1" d="M336.93,484.15c22.58-8.39,43.58-19.91,62.54-34.09l-12.89-3.14-49.65,37.24Z"/>
    <path class="cls-1" d="M274.86,145.31l7.19-.95c5.32-.67,10.91-.99,17.09-.99,81.38,0,148.05,66.22,148.62,147.63l.05,7.22-7.17.9c-5.33.67-10.93.99-17.1.99-74.7,0-136.84-55.84-147.01-127.95-45.76,78.45-24.2,180.8-22.81,187.08h220.88c16.1-33.04,25.39-70.01,25.39-109.24C500,111.93,388.07,0,250,0S0,111.93,0,250c0,39.23,9.29,76.2,25.39,109.24h211.74c-4.6-22.79-22.98-133.89,37.73-213.93ZM221.16,223.11c-.13,4.36-.57,8.67-1.24,13.05-8.63,55.98-57.29,96.36-112.4,96.37-5.46,0-10.98-.4-16.53-1.21l-7.15-1.05.21-7.22c.13-4.36.57-8.68,1.25-13.06,9.48-61.53,67.29-104.19,128.93-95.15l7.15,1.05-.21,7.22Z"/>
    <path class="cls-1" d="M45.67,375.49h-11.66c9.18,15.76,20.03,30.37,32.31,43.7l16.81-13.92-37.47-29.78Z"/>
    <path class="cls-1" d="M101.35,312.47h0c-.18,1.2-.35,2.39-.49,3.58,49.98,3.36,95.26-32.14,103-82.36.19-1.2.35-2.39.49-3.58-49.79-3.37-95.25,32.14-103,82.36Z"/>
    <path class="cls-1" d="M382.83,414.68l7.66,16.47,24.81,6.05c20.02-17.69,37.15-38.48,50.68-61.71h-41.55l-41.61,39.19Z"/>
    <path class="cls-1" d="M216.14,497.44c11.1,1.51,22.34,2.56,33.86,2.56,16.47,0,32.54-1.69,48.13-4.73l-70.82-54.66-11.16,56.84Z"/>
    <polygon class="cls-1" points="261.82 375.49 232.56 424.13 310.09 483.97 374.63 435.57 346.68 375.49 261.82 375.49"/>
    <polygon class="cls-1" points="140.76 375.49 149 428.88 216.87 418.68 242.85 375.49 140.76 375.49"/>
    <path class="cls-1" d="M423.55,283.86c2.69,0,5.25-.07,7.7-.21-4.36-69.05-62.13-124.04-132.11-124.04-2.69,0-5.24.07-7.7.21,4.36,69.05,62.12,124.04,132.1,124.04Z"/>
    <polygon class="cls-1" points="375.61 399.16 400.74 375.49 364.6 375.49 375.61 399.16"/>
    <polygon class="cls-1" points="71.79 375.49 100.92 398.65 131.23 420.29 124.31 375.49 71.79 375.49"/>
  </g>
</svg>